<svg xmlns="http://www.w3.org/2000/svg" viewBox="0 0 360 480" width="360" height="480">
  <defs>
    <linearGradient id="bg5" x1="0%" y1="0%" x2="100%" y2="100%">
      <stop offset="0%" stop-color="#1a0000"/>
      <stop offset="50%" stop-color="#3d0000"/>
      <stop offset="100%" stop-color="#001B5E"/>
    </linearGradient>
  </defs>
  <rect width="360" height="480" fill="url(#bg5)"/>
  <polygon points="0,310 360,210 360,480 0,480" fill="#0a0000" opacity="0.6"/>
  <rect width="360" height="6" fill="#FFCD00"/>
  <text x="200" y="230" font-family="Arial Black, sans-serif" font-size="220" font-weight="900" fill="#FFCD00" opacity="0.07" text-anchor="middle">11</text>
  <g transform="translate(60,30)" opacity="0.9">
    <ellipse cx="150" cy="52" rx="29" ry="33" fill="#1a3a6b"/>
    <rect x="140" y="81" width="20" height="16" fill="#1a3a6b"/>
    <path d="M97,97 Q117,92 150,94 Q184,92 200,97 L208,190 L86,190 Z" fill="#1a3a6b"/>
    <path d="M97,104 Q68,82 52,50" stroke="#1a3a6b" stroke-width="24" stroke-linecap="round" fill="none"/>
    <path d="M200,104 Q226,126 242,148" stroke="#1a3a6b" stroke-width="24" stroke-linecap="round" fill="none"/>
    <path d="M113,188 Q94,246 72,296" stroke="#1a3a6b" stroke-width="27" stroke-linecap="round" fill="none"/>
    <path d="M72,296 Q56,320 38,327" stroke="#1a3a6b" stroke-width="21" stroke-linecap="round" fill="none"/>
    <path d="M174,188 Q195,246 218,296" stroke="#1a3a6b" stroke-width="27" stroke-linecap="round" fill="none"/>
    <path d="M218,296 Q237,320 252,328" stroke="#1a3a6b" stroke-width="21" stroke-linecap="round" fill="none"/>
  </g>
  <rect y="390" width="360" height="90" fill="#FFCD00"/>
  <text x="180" y="428" font-family="Arial Black, sans-serif" font-size="28" font-weight="900" fill="#001B5E" text-anchor="middle" letter-spacing="2">ELANGA</text>
  <text x="180" y="455" font-family="Arial, sans-serif" font-size="13" fill="#001B5E" text-anchor="middle" letter-spacing="3" opacity="0.7">YTTER · SVERIGE</text>
  <text x="180" y="472" font-family="Arial, sans-serif" font-size="11" fill="#001B5E" text-anchor="middle" opacity="0.5">NEWCASTLE UNITED</text>
  <rect x="14" y="396" width="36" height="24" fill="#005EB8" rx="2"/>
  <rect x="14" y="406" width="36" height="4" fill="#FFCD00"/>
  <rect x="26" y="396" width="4" height="24" fill="#FFCD00"/>
</svg>