<svg xmlns="http://www.w3.org/2000/svg" viewBox="0 0 800 450" width="800" height="450">
  <defs>
    <linearGradient id="skyNRG" x1="0%" y1="0%" x2="0%" y2="100%">
      <stop offset="0%" stop-color="#000a1a"/>
      <stop offset="70%" stop-color="#001840"/>
      <stop offset="100%" stop-color="#001a00"/>
    </linearGradient>
    <radialGradient id="nrgGlow" cx="50%" cy="45%" r="40%">
      <stop offset="0%" stop-color="#FFCD00" stop-opacity="0.2"/>
      <stop offset="100%" stop-color="#FFCD00" stop-opacity="0"/>
    </radialGradient>
  </defs>
  <rect width="800" height="450" fill="url(#skyNRG)"/>
  <rect width="800" height="450" fill="url(#nrgGlow)"/>
  
  <!-- Stars/night sky -->
  <circle cx="80" cy="30" r="1" fill="white" opacity="0.5"/>
  <circle cx="200" cy="50" r="1.2" fill="white" opacity="0.4"/>
  <circle cx="350" cy="25" r="0.8" fill="white" opacity="0.6"/>
  <circle cx="500" cy="40" r="1" fill="white" opacity="0.5"/>
  <circle cx="650" cy="30" r="1.2" fill="white" opacity="0.4"/>
  <circle cx="750" cy="55" r="0.8" fill="white" opacity="0.6"/>
  
  <!-- NRG Stadium distinctive retractable roof shape -->
  <!-- Main roof left panel -->
  <path d="M0,180 Q100,120 200,110 L200,135 Q100,145 0,205 Z" fill="#1a2d40" opacity="0.95"/>
  <!-- Main roof right panel -->
  <path d="M800,180 Q700,120 600,110 L600,135 Q700,145 800,205 Z" fill="#1a2d40" opacity="0.95"/>
  <!-- Roof gap/opening center -->
  <path d="M200,110 Q400,90 600,110 L600,135 Q400,115 200,135 Z" fill="#0a1820" opacity="0.9"/>
  
  <!-- Stadium exterior walls -->
  <rect x="50" y="200" width="700" height="180" fill="#0e1f35" opacity="0.9"/>
  <!-- Window details -->
  <g fill="#FFCD00" opacity="0.3">
    <rect x="80" y="215" width="20" height="30" rx="1"/>
    <rect x="115" y="215" width="20" height="30" rx="1"/>
    <rect x="150" y="215" width="20" height="30" rx="1"/>
    <rect x="185" y="215" width="20" height="30" rx="1"/>
    <rect x="220" y="215" width="20" height="30" rx="1"/>
    <rect x="255" y="215" width="20" height="30" rx="1"/>
    <rect x="290" y="215" width="20" height="30" rx="1"/>
    <rect x="325" y="215" width="20" height="30" rx="1"/>
    <rect x="360" y="215" width="20" height="30" rx="1"/>
    <rect x="395" y="215" width="20" height="30" rx="1"/>
    <rect x="430" y="215" width="20" height="30" rx="1"/>
    <rect x="465" y="215" width="20" height="30" rx="1"/>
    <rect x="500" y="215" width="20" height="30" rx="1"/>
    <rect x="535" y="215" width="20" height="30" rx="1"/>
    <rect x="570" y="215" width="20" height="30" rx="1"/>
    <rect x="605" y="215" width="20" height="30" rx="1"/>
    <rect x="640" y="215" width="20" height="30" rx="1"/>
    <rect x="675" y="215" width="20" height="30" rx="1"/>
    <rect x="710" y="215" width="20" height="30" rx="1"/>
  </g>
  <!-- Second row windows -->
  <g fill="#FFCD00" opacity="0.15">
    <rect x="80" y="260" width="20" height="25" rx="1"/>
    <rect x="115" y="260" width="20" height="25" rx="1"/>
    <rect x="150" y="260" width="20" height="25" rx="1"/>
    <rect x="220" y="260" width="20" height="25" rx="1"/>
    <rect x="290" y="260" width="20" height="25" rx="1"/>
    <rect x="360" y="260" width="20" height="25" rx="1"/>
    <rect x="430" y="260" width="20" height="25" rx="1"/>
    <rect x="500" y="260" width="20" height="25" rx="1"/>
    <rect x="570" y="260" width="20" height="25" rx="1"/>
    <rect x="640" y="260" width="20" height="25" rx="1"/>
    <rect x="710" y="260" width="20" height="25" rx="1"/>
  </g>
  
  <!-- Ground level / base -->
  <rect x="0" y="380" width="800" height="70" fill="#050d18"/>
  <!-- Parking/ground details -->
  <line x1="0" y1="382" x2="800" y2="382" stroke="#FFCD00" stroke-width="1" opacity="0.15"/>
  
  <!-- Foreground crowd silhouettes at base -->
  <g fill="#0a1525" opacity="0.8">
    <ellipse cx="50" cy="381" rx="12" ry="10"/>
    <ellipse cx="78" cy="383" rx="12" ry="10"/>
    <ellipse cx="106" cy="380" rx="12" ry="10"/>
    <ellipse cx="134" cy="382" rx="12" ry="10"/>
    <ellipse cx="162" cy="381" rx="12" ry="10"/>
    <ellipse cx="700" cy="381" rx="12" ry="10"/>
    <ellipse cx="728" cy="383" rx="12" ry="10"/>
    <ellipse cx="756" cy="380" rx="12" ry="10"/>
  </g>
  
  <!-- Floodlights on roof -->
  <ellipse cx="200" cy="108" rx="25" ry="6" fill="#FFCD00" opacity="0.5"/>
  <ellipse cx="600" cy="108" rx="25" ry="6" fill="#FFCD00" opacity="0.5"/>
  
  <!-- Label -->
  <text x="400" y="420" font-family="Arial Black, sans-serif" font-size="18" font-weight="900" fill="white" text-anchor="middle" letter-spacing="4" opacity="0.8">NRG STADIUM</text>
  <text x="400" y="442" font-family="Arial, sans-serif" font-size="11" fill="#FFCD00" text-anchor="middle" letter-spacing="2" opacity="0.6">HOUSTON, TEXAS · 72,220 PLATSER</text>
</svg>