<svg xmlns="http://www.w3.org/2000/svg" viewBox="0 0 1440 600" width="1440" height="600">
  <defs>
    <radialGradient id="skyGlow" cx="50%" cy="30%" r="60%">
      <stop offset="0%" stop-color="#1a3a6b" stop-opacity="0.8"/>
      <stop offset="100%" stop-color="#000510" stop-opacity="1"/>
    </radialGradient>
    <radialGradient id="pitchGlow" cx="50%" cy="85%" r="40%">
      <stop offset="0%" stop-color="#0a3a0a" stop-opacity="0.9"/>
      <stop offset="100%" stop-color="#000" stop-opacity="0"/>
    </radialGradient>
    <radialGradient id="light1" cx="50%" cy="50%" r="50%">
      <stop offset="0%" stop-color="#FFCD00" stop-opacity="0.15"/>
      <stop offset="100%" stop-color="#FFCD00" stop-opacity="0"/>
    </radialGradient>
  </defs>
  <!-- Night sky background -->
  <rect width="1440" height="600" fill="#000510"/>
  <rect width="1440" height="600" fill="url(#skyGlow)"/>
  
  <!-- Stars -->
  <circle cx="120" cy="40" r="1.2" fill="white" opacity="0.6"/>
  <circle cx="280" cy="25" r="0.8" fill="white" opacity="0.5"/>
  <circle cx="450" cy="55" r="1" fill="white" opacity="0.4"/>
  <circle cx="680" cy="20" r="1.5" fill="white" opacity="0.5"/>
  <circle cx="900" cy="40" r="1" fill="white" opacity="0.6"/>
  <circle cx="1100" cy="30" r="1.2" fill="white" opacity="0.4"/>
  <circle cx="1300" cy="50" r="0.8" fill="white" opacity="0.5"/>
  <circle cx="1380" cy="15" r="1" fill="white" opacity="0.6"/>
  <circle cx="200" cy="70" r="0.6" fill="white" opacity="0.3"/>
  <circle cx="560" cy="35" r="0.8" fill="white" opacity="0.4"/>
  <circle cx="820" cy="60" r="1" fill="white" opacity="0.3"/>
  <circle cx="1050" cy="75" r="0.6" fill="white" opacity="0.4"/>
  <circle cx="1240" cy="20" r="1.2" fill="white" opacity="0.5"/>
  
  <!-- Stadium outer arch left -->
  <ellipse cx="320" cy="580" rx="480" ry="520" fill="none" stroke="#0e2d5e" stroke-width="3" opacity="0.4"/>
  <!-- Stadium outer arch right -->
  <ellipse cx="1120" cy="580" rx="480" ry="520" fill="none" stroke="#0e2d5e" stroke-width="3" opacity="0.4"/>
  
  <!-- Stadium roof/canopy left -->
  <path d="M0,120 Q180,80 360,95 Q480,105 580,115 L580,145 Q480,135 360,125 Q180,110 0,150 Z" fill="#0e1f3d" opacity="0.95"/>
  <!-- Stadium roof/canopy right -->
  <path d="M1440,120 Q1260,80 1080,95 Q960,105 860,115 L860,145 Q960,135 1080,125 Q1260,110 1440,150 Z" fill="#0e1f3d" opacity="0.95"/>
  
  <!-- Floodlights -->
  <rect x="110" y="70" width="14" height="60" fill="#1a2d50"/>
  <rect x="90" y="65" width="54" height="12" fill="#2a4070" rx="2"/>
  <ellipse cx="117" cy="61" rx="35" ry="8" fill="#FFCD00" opacity="0.4"/>
  
  <rect x="1316" y="70" width="14" height="60" fill="#1a2d50"/>
  <rect x="1296" y="65" width="54" height="12" fill="#2a4070" rx="2"/>
  <ellipse cx="1323" cy="61" rx="35" ry="8" fill="#FFCD00" opacity="0.4"/>
  
  <!-- Left floodlight beam -->
  <polygon points="90,73 0,200 0,380 270,140" fill="#FFCD00" opacity="0.025"/>
  <!-- Right floodlight beam -->
  <polygon points="1350,73 1440,200 1440,380 1170,140" fill="#FFCD00" opacity="0.025"/>
  
  <!-- Crowd stands left (rows of silhouettes) -->
  <g opacity="0.85">
    <!-- Row 1 - top, darkest -->
    <rect x="0" y="152" width="580" height="20" fill="#0a1a30" opacity="0.9"/>
    <!-- Crowd heads row 1 -->
    <g fill="#162840">
      <ellipse cx="15" cy="153" rx="7" ry="6"/> <ellipse cx="32" cy="151" rx="7" ry="6"/> <ellipse cx="49" cy="154" rx="7" ry="6"/> <ellipse cx="66" cy="152" rx="7" ry="6"/> <ellipse cx="83" cy="153" rx="7" ry="6"/> <ellipse cx="100" cy="151" rx="7" ry="6"/> <ellipse cx="117" cy="154" rx="7" ry="6"/> <ellipse cx="134" cy="152" rx="7" ry="6"/> <ellipse cx="151" cy="153" rx="7" ry="6"/> <ellipse cx="168" cy="151" rx="7" ry="6"/> <ellipse cx="185" cy="154" rx="7" ry="6"/> <ellipse cx="202" cy="152" rx="7" ry="6"/> <ellipse cx="219" cy="153" rx="7" ry="6"/> <ellipse cx="236" cy="151" rx="7" ry="6"/> <ellipse cx="253" cy="154" rx="7" ry="6"/> <ellipse cx="270" cy="152" rx="7" ry="6"/> <ellipse cx="287" cy="153" rx="7" ry="6"/> <ellipse cx="304" cy="151" rx="7" ry="6"/> <ellipse cx="321" cy="154" rx="7" ry="6"/> <ellipse cx="338" cy="152" rx="7" ry="6"/> <ellipse cx="355" cy="153" rx="7" ry="6"/> <ellipse cx="372" cy="151" rx="7" ry="6"/> <ellipse cx="389" cy="154" rx="7" ry="6"/> <ellipse cx="406" cy="152" rx="7" ry="6"/> <ellipse cx="423" cy="153" rx="7" ry="6"/> <ellipse cx="440" cy="151" rx="7" ry="6"/> <ellipse cx="457" cy="154" rx="7" ry="6"/> <ellipse cx="474" cy="152" rx="7" ry="6"/> <ellipse cx="491" cy="153" rx="7" ry="6"/> <ellipse cx="508" cy="151" rx="7" ry="6"/> <ellipse cx="525" cy="154" rx="7" ry="6"/> <ellipse cx="542" cy="152" rx="7" ry="6"/> <ellipse cx="559" cy="153" rx="7" ry="6"/>
    </g>
    <!-- Row 2 -->
    <rect x="0" y="171" width="580" height="22" fill="#0c2040" opacity="0.9"/>
    <g fill="#1e3855">
      <ellipse cx="15" cy="172" rx="8" ry="7"/> <ellipse cx="34" cy="170" rx="8" ry="7"/> <ellipse cx="53" cy="173" rx="8" ry="7"/> <ellipse cx="72" cy="171" rx="8" ry="7"/> <ellipse cx="91" cy="172" rx="8" ry="7"/> <ellipse cx="110" cy="170" rx="8" ry="7"/> <ellipse cx="129" cy="173" rx="8" ry="7"/> <ellipse cx="148" cy="171" rx="8" ry="7"/> <ellipse cx="167" cy="172" rx="8" ry="7"/> <ellipse cx="186" cy="170" rx="8" ry="7"/> <ellipse cx="205" cy="173" rx="8" ry="7"/> <ellipse cx="224" cy="171" rx="8" ry="7"/> <ellipse cx="243" cy="172" rx="8" ry="7"/> <ellipse cx="262" cy="170" rx="8" ry="7"/> <ellipse cx="281" cy="173" rx="8" ry="7"/> <ellipse cx="300" cy="171" rx="8" ry="7"/> <ellipse cx="319" cy="172" rx="8" ry="7"/> <ellipse cx="338" cy="170" rx="8" ry="7"/> <ellipse cx="357" cy="173" rx="8" ry="7"/> <ellipse cx="376" cy="171" rx="8" ry="7"/> <ellipse cx="395" cy="172" rx="8" ry="7"/> <ellipse cx="414" cy="170" rx="8" ry="7"/> <ellipse cx="433" cy="173" rx="8" ry="7"/> <ellipse cx="452" cy="171" rx="8" ry="7"/> <ellipse cx="471" cy="172" rx="8" ry="7"/> <ellipse cx="490" cy="170" rx="8" ry="7"/> <ellipse cx="509" cy="173" rx="8" ry="7"/> <ellipse cx="528" cy="171" rx="8" ry="7"/> <ellipse cx="547" cy="172" rx="8" ry="7"/> <ellipse cx="566" cy="170" rx="8" ry="7"/>
    </g>
    <!-- Row 3 with Swedish flag color fans -->
    <rect x="0" y="192" width="580" height="24" fill="#0e2848" opacity="0.9"/>
    <g fill="#2a4a6a">
      <ellipse cx="15" cy="193" rx="9" ry="8"/> <ellipse cx="36" cy="191" rx="9" ry="8"/> <ellipse cx="57" cy="194" rx="9" ry="8"/> <ellipse cx="78" cy="192" rx="9" ry="8"/> <ellipse cx="99" cy="193" rx="9" ry="8"/> <ellipse cx="120" cy="191" rx="9" ry="8"/> <ellipse cx="141" cy="194" rx="9" ry="8"/> <ellipse cx="162" cy="192" rx="9" ry="8"/> <ellipse cx="183" cy="193" rx="9" ry="8"/> <ellipse cx="204" cy="191" rx="9" ry="8"/> <ellipse cx="225" cy="194" rx="9" ry="8"/> <ellipse cx="246" cy="192" rx="9" ry="8"/> <ellipse cx="267" cy="193" rx="9" ry="8"/> <ellipse cx="288" cy="191" rx="9" ry="8"/> <ellipse cx="309" cy="194" rx="9" ry="8"/> <ellipse cx="330" cy="192" rx="9" ry="8"/> <ellipse cx="351" cy="193" rx="9" ry="8"/> <ellipse cx="372" cy="191" rx="9" ry="8"/> <ellipse cx="393" cy="194" rx="9" ry="8"/> <ellipse cx="414" cy="192" rx="9" ry="8"/> <ellipse cx="435" cy="193" rx="9" ry="8"/> <ellipse cx="456" cy="191" rx="9" ry="8"/> <ellipse cx="477" cy="194" rx="9" ry="8"/> <ellipse cx="498" cy="192" rx="9" ry="8"/> <ellipse cx="519" cy="193" rx="9" ry="8"/> <ellipse cx="540" cy="191" rx="9" ry="8"/> <ellipse cx="561" cy="194" rx="9" ry="8"/>
    </g>
    <!-- Swedish fans yellow dots row 3 -->
    <g fill="#FFCD00" opacity="0.6">
      <ellipse cx="78" cy="192" rx="9" ry="8"/> <ellipse cx="120" cy="191" rx="9" ry="8"/> <ellipse cx="204" cy="193" rx="9" ry="8"/> <ellipse cx="267" cy="192" rx="9" ry="8"/> <ellipse cx="330" cy="191" rx="9" ry="8"/> <ellipse cx="414" cy="193" rx="9" ry="8"/> <ellipse cx="477" cy="192" rx="9" ry="8"/>
    </g>
  </g>
  
  <!-- Crowd stands right (mirror) -->
  <g opacity="0.85">
    <rect x="860" y="152" width="580" height="20" fill="#0a1a30" opacity="0.9"/>
    <g fill="#162840">
      <ellipse cx="875" cy="153" rx="7" ry="6"/> <ellipse cx="892" cy="151" rx="7" ry="6"/> <ellipse cx="909" cy="154" rx="7" ry="6"/> <ellipse cx="926" cy="152" rx="7" ry="6"/> <ellipse cx="943" cy="153" rx="7" ry="6"/> <ellipse cx="960" cy="151" rx="7" ry="6"/> <ellipse cx="977" cy="154" rx="7" ry="6"/> <ellipse cx="994" cy="152" rx="7" ry="6"/> <ellipse cx="1011" cy="153" rx="7" ry="6"/> <ellipse cx="1028" cy="151" rx="7" ry="6"/> <ellipse cx="1045" cy="154" rx="7" ry="6"/> <ellipse cx="1062" cy="152" rx="7" ry="6"/> <ellipse cx="1079" cy="153" rx="7" ry="6"/> <ellipse cx="1096" cy="151" rx="7" ry="6"/> <ellipse cx="1113" cy="154" rx="7" ry="6"/> <ellipse cx="1130" cy="152" rx="7" ry="6"/> <ellipse cx="1147" cy="153" rx="7" ry="6"/> <ellipse cx="1164" cy="151" rx="7" ry="6"/> <ellipse cx="1181" cy="154" rx="7" ry="6"/> <ellipse cx="1198" cy="152" rx="7" ry="6"/> <ellipse cx="1215" cy="153" rx="7" ry="6"/> <ellipse cx="1232" cy="151" rx="7" ry="6"/> <ellipse cx="1249" cy="154" rx="7" ry="6"/> <ellipse cx="1266" cy="152" rx="7" ry="6"/> <ellipse cx="1283" cy="153" rx="7" ry="6"/> <ellipse cx="1300" cy="151" rx="7" ry="6"/> <ellipse cx="1317" cy="154" rx="7" ry="6"/> <ellipse cx="1334" cy="152" rx="7" ry="6"/> <ellipse cx="1351" cy="153" rx="7" ry="6"/> <ellipse cx="1368" cy="151" rx="7" ry="6"/> <ellipse cx="1385" cy="154" rx="7" ry="6"/> <ellipse cx="1402" cy="152" rx="7" ry="6"/> <ellipse cx="1419" cy="153" rx="7" ry="6"/>
    </g>
    <rect x="860" y="171" width="580" height="22" fill="#0c2040" opacity="0.9"/>
    <g fill="#1e3855">
      <ellipse cx="875" cy="172" rx="8" ry="7"/> <ellipse cx="894" cy="170" rx="8" ry="7"/> <ellipse cx="913" cy="173" rx="8" ry="7"/> <ellipse cx="932" cy="171" rx="8" ry="7"/> <ellipse cx="951" cy="172" rx="8" ry="7"/> <ellipse cx="970" cy="170" rx="8" ry="7"/> <ellipse cx="989" cy="173" rx="8" ry="7"/> <ellipse cx="1008" cy="171" rx="8" ry="7"/> <ellipse cx="1027" cy="172" rx="8" ry="7"/> <ellipse cx="1046" cy="170" rx="8" ry="7"/> <ellipse cx="1065" cy="173" rx="8" ry="7"/> <ellipse cx="1084" cy="171" rx="8" ry="7"/> <ellipse cx="1103" cy="172" rx="8" ry="7"/> <ellipse cx="1122" cy="170" rx="8" ry="7"/> <ellipse cx="1141" cy="173" rx="8" ry="7"/> <ellipse cx="1160" cy="171" rx="8" ry="7"/> <ellipse cx="1179" cy="172" rx="8" ry="7"/> <ellipse cx="1198" cy="170" rx="8" ry="7"/> <ellipse cx="1217" cy="173" rx="8" ry="7"/> <ellipse cx="1236" cy="171" rx="8" ry="7"/> <ellipse cx="1255" cy="172" rx="8" ry="7"/> <ellipse cx="1274" cy="170" rx="8" ry="7"/> <ellipse cx="1293" cy="173" rx="8" ry="7"/> <ellipse cx="1312" cy="171" rx="8" ry="7"/> <ellipse cx="1331" cy="172" rx="8" ry="7"/> <ellipse cx="1350" cy="170" rx="8" ry="7"/> <ellipse cx="1369" cy="173" rx="8" ry="7"/> <ellipse cx="1388" cy="171" rx="8" ry="7"/> <ellipse cx="1407" cy="172" rx="8" ry="7"/> <ellipse cx="1426" cy="170" rx="8" ry="7"/>
    </g>
    <rect x="860" y="192" width="580" height="24" fill="#0e2848" opacity="0.9"/>
    <g fill="#2a4a6a">
      <ellipse cx="875" cy="193" rx="9" ry="8"/> <ellipse cx="896" cy="191" rx="9" ry="8"/> <ellipse cx="917" cy="194" rx="9" ry="8"/> <ellipse cx="938" cy="192" rx="9" ry="8"/> <ellipse cx="959" cy="193" rx="9" ry="8"/> <ellipse cx="980" cy="191" rx="9" ry="8"/> <ellipse cx="1001" cy="194" rx="9" ry="8"/> <ellipse cx="1022" cy="192" rx="9" ry="8"/> <ellipse cx="1043" cy="193" rx="9" ry="8"/> <ellipse cx="1064" cy="191" rx="9" ry="8"/> <ellipse cx="1085" cy="194" rx="9" ry="8"/> <ellipse cx="1106" cy="192" rx="9" ry="8"/> <ellipse cx="1127" cy="193" rx="9" ry="8"/> <ellipse cx="1148" cy="191" rx="9" ry="8"/> <ellipse cx="1169" cy="194" rx="9" ry="8"/> <ellipse cx="1190" cy="192" rx="9" ry="8"/> <ellipse cx="1211" cy="193" rx="9" ry="8"/> <ellipse cx="1232" cy="191" rx="9" ry="8"/> <ellipse cx="1253" cy="194" rx="9" ry="8"/> <ellipse cx="1274" cy="192" rx="9" ry="8"/> <ellipse cx="1295" cy="193" rx="9" ry="8"/> <ellipse cx="1316" cy="191" rx="9" ry="8"/> <ellipse cx="1337" cy="194" rx="9" ry="8"/> <ellipse cx="1358" cy="192" rx="9" ry="8"/> <ellipse cx="1379" cy="193" rx="9" ry="8"/> <ellipse cx="1400" cy="191" rx="9" ry="8"/> <ellipse cx="1421" cy="194" rx="9" ry="8"/>
    </g>
    <g fill="#FFCD00" opacity="0.6">
      <ellipse cx="938" cy="192" rx="9" ry="8"/> <ellipse cx="980" cy="191" rx="9" ry="8"/> <ellipse cx="1064" cy="193" rx="9" ry="8"/> <ellipse cx="1148" cy="192" rx="9" ry="8"/> <ellipse cx="1253" cy="191" rx="9" ry="8"/> <ellipse cx="1316" cy="193" rx="9" ry="8"/> <ellipse cx="1400" cy="192" rx="9" ry="8"/>
    </g>
  </g>
  
  <!-- Pitch - the green rectangle below stands -->
  <rect x="0" y="215" width="1440" height="385" fill="#001a00"/>
  <rect width="1440" height="385" y="215" fill="url(#pitchGlow)"/>
  
  <!-- Pitch markings -->
  <rect x="180" y="240" width="1080" height="300" fill="none" stroke="#0f3f0f" stroke-width="2.5"/>
  <line x1="720" y1="240" x2="720" y2="540" stroke="#0f3f0f" stroke-width="2.5"/>
  <ellipse cx="720" cy="390" rx="90" ry="75" fill="none" stroke="#0f3f0f" stroke-width="2.5"/>
  <circle cx="720" cy="390" r="4" fill="#0f3f0f"/>
  <!-- Penalty areas -->
  <rect x="180" y="300" width="180" height="180" fill="none" stroke="#0f3f0f" stroke-width="2.5"/>
  <rect x="1080" y="300" width="180" height="180" fill="none" stroke="#0f3f0f" stroke-width="2.5"/>
  <!-- 6-yard boxes -->
  <rect x="180" y="345" width="70" height="90" fill="none" stroke="#0f3f0f" stroke-width="2"/>
  <rect x="1190" y="345" width="70" height="90" fill="none" stroke="#0f3f0f" stroke-width="2"/>
  
  <!-- Floodlight glow on pitch -->
  <ellipse cx="400" cy="390" rx="300" ry="200" fill="#FFCD00" opacity="0.015"/>
  <ellipse cx="1040" cy="390" rx="300" ry="200" fill="#FFCD00" opacity="0.015"/>
  
  <!-- Bottom fade to dark -->
  <rect x="0" y="480" width="1440" height="120" fill="url(#bottomFade)" opacity="1"/>
  <defs>
    <linearGradient id="bottomFade" x1="0%" y1="0%" x2="0%" y2="100%">
      <stop offset="0%" stop-color="#000" stop-opacity="0"/>
      <stop offset="100%" stop-color="#000" stop-opacity="0.8"/>
    </linearGradient>
  </defs>
</svg>