<svg xmlns="http://www.w3.org/2000/svg" viewBox="0 0 1200 400" width="1200" height="400">
  <defs>
    <linearGradient id="sweHero" x1="0%" y1="0%" x2="100%" y2="100%">
      <stop offset="0%" stop-color="#001B5E"/>
      <stop offset="60%" stop-color="#003399"/>
      <stop offset="100%" stop-color="#005EB8"/>
    </linearGradient>
    <linearGradient id="yellowStripe" x1="0%" y1="0%" x2="100%" y2="0%">
      <stop offset="0%" stop-color="#FFCD00" stop-opacity="0"/>
      <stop offset="20%" stop-color="#FFCD00" stop-opacity="1"/>
      <stop offset="80%" stop-color="#FFCD00" stop-opacity="1"/>
      <stop offset="100%" stop-color="#FFCD00" stop-opacity="0"/>
    </linearGradient>
    <filter id="blur3"><feGaussianBlur stdDeviation="3"/></filter>
  </defs>
  <rect width="1200" height="400" fill="url(#sweHero)"/>
  
  <!-- Swedish cross pattern (huge, decorative) -->
  <rect x="380" y="0" width="60" height="400" fill="#FFCD00" opacity="0.06"/>
  <rect x="0" y="170" width="1200" height="60" fill="url(#yellowStripe)" opacity="0.07"/>
  
  <!-- Geometric pattern overlay -->
  <polygon points="0,0 300,0 0,200" fill="#000" opacity="0.08"/>
  <polygon points="1200,0 900,0 1200,200" fill="#000" opacity="0.08"/>
  
  <!-- Background hexagonal pattern suggestion -->
  <g opacity="0.04" fill="none" stroke="#FFCD00" stroke-width="1">
    <polygon points="100,50 130,35 160,50 160,80 130,95 100,80"/>
    <polygon points="160,50 190,35 220,50 220,80 190,95 160,80"/>
    <polygon points="220,50 250,35 280,50 280,80 250,95 220,80"/>
    <polygon points="1000,50 1030,35 1060,50 1060,80 1030,95 1000,80"/>
    <polygon points="1060,50 1090,35 1120,50 1120,80 1090,95 1060,80"/>
    <polygon points="100,110 130,95 160,110 160,140 130,155 100,140"/>
    <polygon points="1000,110 1030,95 1060,110 1060,140 1030,155 1000,140"/>
  </g>
  
  <!-- Player silhouettes (2 players) -->
  <!-- Player 1 - left, running -->
  <g transform="translate(120,40) scale(0.9)" opacity="0.35" fill="#4488cc">
    <ellipse cx="120" cy="58" rx="28" ry="32"/>
    <rect x="111" y="86" width="18" height="15"/>
    <path d="M78,98 Q98,93 120,95 Q142,93 162,98 L168,178 L72,178 Z"/>
    <path d="M78,105 Q52,88 38,58" stroke="#4488cc" stroke-width="22" stroke-linecap="round" fill="none"/>
    <path d="M162,105 Q185,128 195,155" stroke="#4488cc" stroke-width="22" stroke-linecap="round" fill="none"/>
    <path d="M92,176 Q76,228 58,272" stroke="#4488cc" stroke-width="24" stroke-linecap="round" fill="none"/>
    <path d="M58,272 Q44,294 28,300" stroke="#4488cc" stroke-width="18" stroke-linecap="round" fill="none"/>
    <path d="M148,176 Q164,228 180,272" stroke="#4488cc" stroke-width="24" stroke-linecap="round" fill="none"/>
    <path d="M180,272 Q196,294 210,300" stroke="#4488cc" stroke-width="18" stroke-linecap="round" fill="none"/>
  </g>
  
  <!-- Player 2 - right, shooting pose -->
  <g transform="translate(920,30) scale(1.0)" opacity="0.3" fill="#4488cc">
    <ellipse cx="130" cy="60" rx="30" ry="34"/>
    <rect x="120" y="90" width="20" height="16"/>
    <path d="M85,105 Q108,98 130,100 Q155,98 175,105 L183,195 L78,195 Z"/>
    <path d="M85,112 Q56,92 40,60" stroke="#4488cc" stroke-width="24" stroke-linecap="round" fill="none"/>
    <path d="M175,112 Q202,134 218,168" stroke="#4488cc" stroke-width="24" stroke-linecap="round" fill="none"/>
    <path d="M100,193 Q82,248 62,296" stroke="#4488cc" stroke-width="26" stroke-linecap="round" fill="none"/>
    <path d="M62,296 Q46,320 28,328" stroke="#4488cc" stroke-width="20" stroke-linecap="round" fill="none"/>
    <path d="M158,193 Q178,248 200,296" stroke="#4488cc" stroke-width="26" stroke-linecap="round" fill="none"/>
    <path d="M200,296 Q220,320 238,328" stroke="#4488cc" stroke-width="20" stroke-linecap="round" fill="none"/>
  </g>
  
  <!-- Central content area -->
  <text x="600" y="110" font-family="Arial Black, sans-serif" font-size="16" fill="#FFCD00" text-anchor="middle" letter-spacing="6" opacity="0.9">SVERIGE</text>
  <text x="600" y="210" font-family="Arial Black, sans-serif" font-size="88" font-weight="900" fill="white" text-anchor="middle" letter-spacing="4">VM 2026</text>
  <rect x="200" y="228" width="800" height="4" fill="#FFCD00" opacity="0.5"/>
  <text x="600" y="275" font-family="Arial, sans-serif" font-size="20" fill="white" text-anchor="middle" letter-spacing="3" opacity="0.7">GRUPP F · USA 2026</text>
  <text x="600" y="320" font-family="Arial, sans-serif" font-size="15" fill="#FFCD00" text-anchor="middle" letter-spacing="2" opacity="0.8">🇸🇪 Sverige · 🇳🇱 Nederländerna · 🇯🇵 Japan · 🇹🇳 Tunisien</text>
  
  <!-- Bottom yellow bar -->
  <rect y="370" width="1200" height="6" fill="#FFCD00" opacity="0.7"/>
</svg>